<?xml version="1.0" standalone="no"?>
<!DOCTYPE svg PUBLIC "-//W3C//DTD SVG 20010904//EN"
 "http://www.w3.org/TR/2001/REC-SVG-20010904/DTD/svg10.dtd">
<svg version="1.0" xmlns="http://www.w3.org/2000/svg"
 width="322.000000pt" height="322.000000pt" viewBox="0 0 322.000000 322.000000"
 preserveAspectRatio="xMidYMid meet">
<metadata>
Created by potrace 1.11, written by Peter Selinger 2001-2013
</metadata>
<g transform="translate(0.000000,322.000000) scale(0.100000,-0.100000)"
fill="#000000" stroke="none">
<path d="M1552 3110 c-51 -11 -108 -44 -123 -72 -17 -31 -2 -66 51 -122 52
-55 70 -90 70 -135 0 -27 -2 -29 -62 -35 -71 -8 -223 -43 -252 -59 -16 -8 -23
-5 -38 13 -23 28 -23 62 -1 123 22 62 12 81 -46 85 -79 6 -173 -65 -156 -117
3 -10 25 -26 49 -35 52 -20 74 -42 82 -82 5 -29 2 -32 -55 -63 -33 -17 -96
-59 -140 -91 l-80 -59 -21 26 c-24 31 -27 43 -35 153 -7 101 -20 120 -80 120
-70 0 -177 -84 -211 -166 -19 -45 -18 -109 2 -128 16 -17 25 -18 119 -20 40
-1 72 -8 94 -21 58 -34 59 -44 4 -115 -26 -36 -70 -106 -96 -156 -26 -51 -54
-95 -63 -98 -29 -11 -67 18 -101 77 -26 44 -39 57 -58 57 -52 0 -105 -107 -88
-179 8 -31 13 -36 42 -39 18 -2 43 4 58 13 18 12 38 16 67 12 56 -8 67 -26 50
-85 -7 -26 -18 -82 -23 -126 -5 -43 -13 -82 -18 -87 -20 -20 -77 5 -137 61
-97 91 -128 100 -170 50 -88 -105 -46 -350 60 -350 28 0 46 10 87 49 29 26 62
53 74 60 24 12 93 15 94 4 0 -5 2 -15 3 -23 2 -8 6 -40 10 -70 8 -58 35 -168
59 -236 16 -45 13 -55 -20 -73 -29 -15 -59 -14 -111 4 -33 12 -48 13 -64 4
-18 -9 -20 -18 -16 -64 5 -62 39 -119 80 -136 40 -16 55 -6 82 55 23 52 62 87
98 86 7 0 29 -28 48 -61 19 -33 63 -93 97 -132 35 -40 62 -79 60 -86 -5 -29
-67 -54 -153 -61 -103 -8 -134 -26 -134 -76 0 -100 135 -224 244 -224 49 0 76
18 77 53 0 12 0 49 -1 82 -1 64 8 95 38 134 l19 24 74 -47 c41 -26 98 -61 127
-77 39 -22 52 -35 52 -52 0 -34 -25 -63 -76 -88 -24 -13 -50 -29 -56 -36 -43
-52 96 -139 178 -112 41 13 46 36 22 91 -20 45 -19 90 5 122 12 17 17 16 97
-4 46 -12 115 -24 152 -27 63 -5 68 -8 68 -29 0 -41 -19 -74 -74 -133 -58 -60
-80 -102 -71 -132 4 -11 27 -31 53 -46 41 -24 56 -27 132 -27 96 1 146 18 180
61 30 39 20 77 -31 122 -23 19 -50 53 -60 75 -19 41 -26 106 -11 106 4 0 27
-30 51 -65 77 -116 201 -224 326 -288 70 -35 190 -77 219 -77 12 0 59 16 106
35 333 137 515 373 601 777 19 85 23 141 25 318 2 155 5 215 14 218 7 3 23 27
36 56 41 88 31 211 -23 284 -19 25 -31 32 -59 32 -29 0 -44 -9 -82 -46 -61
-60 -79 -71 -129 -79 l-42 -7 -6 49 c-13 101 -38 211 -63 277 -25 67 -25 69
-7 82 24 18 69 17 123 -1 59 -21 82 -8 82 46 0 54 -21 99 -60 132 -52 44 -68
36 -111 -57 -12 -25 -61 -66 -79 -66 -3 0 -24 31 -47 68 -23 37 -69 99 -102
138 -36 42 -59 78 -56 86 12 30 69 51 158 59 62 5 94 12 108 25 58 53 -26 201
-145 255 -51 23 -119 25 -140 3 -17 -17 -18 -26 -16 -120 1 -64 -15 -119 -43
-143 -15 -11 -28 -6 -102 42 -47 30 -105 63 -130 73 -73 31 -57 81 40 128 58
29 66 46 44 88 -15 27 -85 58 -136 58 -78 0 -87 -14 -56 -99 16 -45 14 -80 -6
-109 -7 -12 -23 -10 -92 7 -46 11 -114 23 -151 27 -67 7 -68 7 -68 36 0 40 21
76 75 128 26 25 54 60 62 78 12 30 12 37 -2 58 -34 52 -150 83 -243 64z m1222
-1520 c13 0 40 -16 62 -36 l39 -35 -78 5 c-44 2 -81 6 -83 9 -2 2 -1 18 2 36
5 22 11 30 21 27 8 -4 25 -6 37 -6z m-474 -90 c14 -15 79 -57 115 -73 85 -40
162 -57 271 -64 l112 -6 6 -45 c14 -102 6 -279 -19 -417 -18 -98 -108 -301
-128 -288 -6 4 -8 0 -5 -9 9 -22 -145 -166 -213 -200 -165 -83 -179 -84 -321
-10 -264 135 -399 399 -397 772 0 58 4 126 7 153 l7 47 100 4 c121 4 238 34
312 82 32 20 60 31 70 28 13 -4 15 -3 5 4 -11 7 -7 14 15 30 27 20 39 18 63
-8z"/>
<path d="M2226 1334 c-13 -12 -16 -41 -16 -155 0 -76 -4 -139 -9 -139 -4 0
-14 35 -20 78 -20 128 -23 137 -53 140 -43 5 -52 -24 -44 -157 6 -122 -3 -133
-23 -27 -15 82 -35 103 -68 70 -14 -14 -14 -38 -1 -252 16 -265 25 -296 94
-349 31 -23 49 -28 108 -31 119 -6 182 22 258 116 18 22 61 59 96 82 99 67
120 105 84 149 -13 17 -29 22 -61 23 -24 0 -46 -5 -50 -11 -4 -6 -21 -14 -39
-17 l-32 -6 -1 138 c-1 169 -10 252 -30 265 -8 5 -24 9 -36 9 -28 0 -44 -51
-42 -134 1 -32 -3 -62 -10 -69 -6 -6 -11 -7 -11 -2 -2 76 -22 260 -30 275 -13
24 -43 26 -64 4z"/>
</g>
</svg>
